/* XPM */
static char *_e2661e01ea445559aad4a0641a7894eUElmtTzgA6W9Vd9V[] = {
/* columns rows colors chars-per-pixel */
"34 44 233 2 ",
"   c #010101",
".  c #090303",
"X  c #030A02",
"o  c #0B0A05",
"O  c #03020B",
"+  c #0B040B",
"@  c #04080B",
"#  c #0B0A0C",
"$  c #110902",
"%  c #110D0A",
"&  c #140302",
"*  c #19130B",
"=  c #040112",
"-  c #0D0A12",
";  c #150713",
":  c #0E111B",
">  c #1E1A19",
",  c #23160C",
"<  c #241816",
"1  c #1A231E",
"2  c #292318",
"3  c #35331E",
"4  c #1D152A",
"5  c #221E2D",
"6  c #1E252A",
"7  c #2B2727",
"8  c #342B25",
"9  c #333528",
"0  c #383634",
"q  c #2E3426",
"w  c #473B25",
"e  c #483733",
"r  c #4A3C37",
"t  c #503C33",
"y  c #5D3529",
"u  c #45422F",
"i  c #58422A",
"p  c #554538",
"a  c #57503D",
"s  c #4B4D35",
"d  c #774829",
"f  c #644839",
"g  c #65523E",
"h  c #744A32",
"j  c #5F4B42",
"k  c #4F504B",
"l  c #565548",
"z  c #595751",
"x  c #434047",
"c  c #64534B",
"v  c #6A5944",
"b  c #72504F",
"n  c #6C5752",
"m  c #795F56",
"M  c #6B4B45",
"N  c #776747",
"B  c #7D6C56",
"V  c #6E7452",
"C  c #76765C",
"Z  c #99541E",
"A  c #B95E0F",
"S  c #AD5A1D",
"D  c #B96019",
"F  c #81462B",
"G  c #87562A",
"H  c #9B5A27",
"J  c #8A583B",
"K  c #925A3F",
"L  c #8E4C37",
"P  c #A75527",
"I  c #AD5922",
"U  c #A4572D",
"Y  c #B55B2B",
"T  c #AB5735",
"R  c #9E6A2E",
"E  c #8C693A",
"W  c #966639",
"Q  c #B76527",
"!  c #B36833",
"~  c #BF743D",
"^  c #A66A35",
"/  c #C65B17",
"(  c #DE720D",
")  c #C46418",
"_  c #DB671A",
"`  c #C77517",
"'  c #DD7B1D",
"]  c #CE6A08",
"[  c #E46C0E",
"{  c #EC670A",
"}  c #F06E0C",
"|  c #FE740D",
" . c #F87908",
".. c #E96B16",
"X. c #FC6C19",
"o. c #F86E16",
"O. c #EA741A",
"+. c #FC7B19",
"@. c #F67717",
"#. c #E87C0F",
"$. c #D15E25",
"%. c #C76725",
"&. c #D36B23",
"*. c #C57529",
"=. c #D7752A",
"-. c #DC6E31",
";. c #C67938",
":. c #D07034",
">. c #E87624",
",. c #F47B27",
"<. c #F0702B",
"1. c #896445",
"2. c #986549",
"3. c #8F6E5F",
"4. c #866C55",
"5. c #966D57",
"6. c #887B58",
"7. c #937856",
"8. c #A86A49",
"9. c #AD7043",
"0. c #A26F50",
"q. c #B9775A",
"w. c #887469",
"e. c #8E766F",
"r. c #C9784A",
"t. c #CA7F58",
"y. c #BF8033",
"u. c #EC8E0C",
"i. c #F3850C",
"p. c #FC850B",
"a. c #F38B0D",
"s. c #FE8C09",
"d. c #FF9305",
"f. c #FD9D0C",
"g. c #F8950A",
"h. c #E8881B",
"j. c #F48414",
"k. c #FD8214",
"l. c #F58B13",
"z. c #F5831B",
"x. c #F38A1A",
"c. c #FE8C1C",
"v. c #FE8717",
"b. c #E5911B",
"n. c #EC961A",
"m. c #F69514",
"M. c #FD9512",
"N. c #F69A11",
"B. c #FE9A16",
"V. c #F0911D",
"C. c #FA931C",
"Z. c #FE9B1A",
"A. c #F49C1B",
"S. c #EEA210",
"D. c #FEA214",
"F. c #FDA31B",
"G. c #F3A31A",
"H. c #FEA408",
"J. c #DA8832",
"K. c #D6913A",
"L. c #D28C2C",
"P. c #E78524",
"I. c #E38A22",
"U. c #EC8B26",
"Y. c #FB8424",
"T. c #F3842A",
"R. c #F58A24",
"E. c #ED942B",
"W. c #EA9727",
"Q. c #FB9622",
"!. c #F59828",
"~. c #E88836",
"^. c #F88732",
"/. c #EA9638",
"(. c #F79E33",
"). c #F59736",
"_. c #FEA523",
"`. c #EFA039",
"'. c #F7A339",
"]. c #AB8855",
"[. c #B78654",
"{. c #B38D54",
"}. c #95826C",
"|. c #99866A",
" X c #878374",
".X c #998373",
"XX c #9B8B72",
"oX c #A98A6B",
"OX c #BD926E",
"+X c #B59B60",
"@X c #A38D75",
"#X c #B38F7F",
"$X c #A99579",
"%X c #B99B74",
"&X c #B49374",
"*X c #B18568",
"=X c #C8864B",
"-X c #D2935A",
";X c #C28B67",
":X c #C49769",
">X c #C69C75",
",X c #D2996C",
"<X c #C6A467",
"1X c #DBA768",
"2X c #CAA679",
"3X c #D8A976",
"4X c #D3B078",
"5X c #E7AF6C",
"6X c #B19D87",
"7X c #B9B194",
"8X c #BAAD8D",
"9X c #CD9E84",
"0X c #D7AB86",
"qX c #D2B590",
"wX c #E7B78C",
"eX c #E2BE94",
"rX c #E5B795",
"tX c #D4C48B",
"yX c #E2C69C",
"uX c #FAD398",
"iX c #F4CC98",
"pX c #E9D5AC",
"aX c #F4DBAC",
"sX c #F9D6A2",
"dX c #F6DEB3",
"fX c #EECAAA",
"gX c #F9E9A9",
"hX c #FDE4B2",
"jX c #FDEDBB",
"kX c #FAE6B6",
"lX c #FFF8BE",
"zX c #FFEFC2",
"xX c #FFF4C6",
/* pixels */
"                O @ O     O O O O O                                 ",
"                                .   .     o                         ",
"                o             .   .       O . .                     ",
"                    @ O O O O +     O O O O O                       ",
"                .     O O @ O O   O O O O   O                       ",
"                . < * $ . $ o o % o $ . . o   O                     ",
"                , w.@X|.7.$X8X7X6X}.4.i i p                         ",
"                v qXyXhXhXjXjXxXzXjX4XOX%X}., .                     ",
"                XX:XwXdXkXsXrXyXiXwX,XeXuX<Xa . - O X . .     .     ",
"                f 0XwX0XwX3X;X:X<X2X4X<X,Xq.f N * .   + + .   O     ",
"                $XaXeXfXeX>XhXhXyXpXxXpX=X~ oX7Xw   @ . O O . O     ",
"                XXtXlXjXhXkXjXgXjXzXkXdX5XK.E g B 6 O o     .       ",
"                oXtXgXaXhXaXdXhXuXiXsXgX1X-XK G ].p + . . X         ",
"                .X2X3X2X>XOX9XOX;X;X:X%X].q.L W &.9.e O + .         ",
"                .X[.Q I I P U H H ! Y U Z Z 1.3.:.J.].: = . . +     ",
"              o +XJ.+.o.[ Y.T.I.!.O.X.o.} %.4.k @XL.K.e O .   O     ",
"              . C J.^.<.| Y.~.Q.T.P.@.X.P.=.*X2 x =XW.}.O . @       ",
"              . * K.U.>. .@.=.#.b.`.U.[ ' D &X0 O ^ (.6.O . O       ",
"            O . > =Xh.j.x.E./.).m.I.U.+.[ %.6Xe   oX(.1.O   +       ",
"            O   7 -XC.l.(.'.'.V.d.z.z.k.o.:.n , o @X'.E O # .       ",
"            O   1 +X!.B.(.E.a.v.f.Q.C.a.v.K.9   o XX).W O @ . X     ",
"          O O O q <Xb._.I.b.N.B.G.n.F.N.z.=Xl   % @X/.W O O #       ",
"            . . 8 1Xb._.h.W._.u.W.!.f.g.,.r.n   % |./.J = @         ",
"            .   8 3XW._.!.V.A.Q.^.!.d.D.T.=Xc O - $XL.1.= O O .     ",
"                9 3Xn.F._.R.R.D.E.N.Q.u.a.t.k X O ].y.#X#     O     ",
"                7 3Xn.R.A.m.B.H.F.B.m.m.z.=Xs O 8 K.R z O .   O     ",
"                7 -Xa.T.!.A.N.N.B.M.M.s. .~  Xw.[.*.oX6 .           ",
"                7 -Xj.^.).E.U.Q.D.B.m.j.+.S 7.5X*.0.w.O . X O .     ",
"                4 ;X( Y.h.E.E._.f.Z.S.l.<.%.Z %.!  X- . X . =       ",
"                0 >X] Y.i.P.E.M.N.l.B.p.{ Q 2.8.e.3 . O   ; O X     ",
"                > 5.A O.p.x.x.M.f.p.Y.| _ F m V 5 . %   @ O .       ",
"                O M r.$.v.M.i.d.i.j.x.#.S 5.3..   =   . O X . O     ",
"              . O 7 E ) p.g.C.v.| z.c.} P e.0 O @ @ O               ",
"              O   : m U O.c.c.a.c. .k.&.Z 6.X &     O               ",
"              . X   g J I _ %.-.:.` ) L 2.N   + O O                 ",
"              . O p r.U I ' ` ) / D >.T F ^ r O O                   ",
"                O w 9.d d *./.<.' -...Y d G 3 O .                   ",
"                . w &Xc r y h G G J F f e t 6 O                     ",
"              O   o v M b 3.B N n j p z c c - .                     ",
"                O   X O 7 6.v c v $X%X7.}.u . O                     ",
"              . O O       + # # & r r 2 < %   O                     ",
"                O O     O O O O . . . . .     O                     ",
"                                +     .       O                     ",
"                          O O O O O O                               "
};
