/* XPM */
static char *_7798b842560411dbe380e0d4984df87wuInwLOSjBNjMX7Y[] = {
/* columns rows colors chars-per-pixel */
"39 64 51 1 ",
"  c #686F89",
". c #545C78",
"X c #676E88",
"o c #545A72",
"O c #69708A",
"+ c #20222B",
"@ c #646B84",
"# c black",
"$ c #5D6480",
"% c #5D637A",
"& c #191A21",
"* c #262932",
"= c #434754",
"- c #5A617C",
"; c #3C4050",
": c #5F6682",
"> c #47506C",
", c #0E1014",
"< c #3E4663",
"1 c #666D89",
"2 c #69708B",
"3 c #A5A26F",
"4 c #636978",
"5 c #87895E",
"6 c #585F77",
"7 c #050506",
"8 c #858A8C",
"9 c #15171D",
"0 c #61677E",
"q c #7A7D66",
"w c #929258",
"e c #B5B8C1",
"r c #989CA9",
"t c #A6AAB5",
"y c #686E74",
"u c #848993",
"i c #DDDEE2",
"p c #C7C9D0",
"a c #8A8F9E",
"s c #A09F4D",
"d c #7B8192",
"f c #A6A36F",
"g c #777B7E",
"h c #A9A647",
"j c #A9A646",
"k c #A7A470",
"l c #33383A",
"z c #47516D",
"x c #A8A645",
"c c #685C88",
"v c #546E72",
/* pixels */
"#7+++++++++++++++++++++++++++++++++++,#",
"#96----------------------------------+#",
"#9-$$$$$$$$$$$$$$$$$$$$$$$$$$$$$$$$$$+#",
"#9yh4w5yh4w5yx4w5yj4w5yj4w5yj4ww4hy5w+#",
"#945%qq45%qq45%qq45%qq45%qq45%qq%54qq+#",
"#9ooo.6%0%%2%@0-60@@oo6 %6%oooo-O0oo.+#",
"#9oo%etrtrepteretpirootieatoadrrip%o6+#",
"#9oo0iiteepdaeiidre6o%parreoerptip6o6+#",
"#9oo0pieetptpppi0aeoo6ptrre0ttpriido6+#",
"#9oo%rrttdaerrrt%dtooouprdieuieuit0o6+#",
"#9o.o.66-6o6.666.6-6..o..-@@6O@$ .o.6+#",
"#9yw05qyw45qyw45q4w05q4w45q4w4qq4w4q5+#",
"#9ys4w5ys4w5ys4w5ys4w5ys455ys4554sy55+#",
"#9o.....................6............+#",
"#,<<<<<<<<<<<<<<<<<<<<<<<<<<<<<<<<<<<&#",
"#9>z>>>>>>>>>>>>>>>>>>>>>>>>>>>>>>>>>+#",
"#9-$$$$$$$$$$$$$$$$$$$$$$$$$$$$$$$$$$+#",
"#9-$$$$$$$$$$$$$$$$$$$$$$$$$$$$$$$$$$+#",
"#9-::::::::::::::::::::::::::::::::::*#",
"#&@XXXXXXXXXXXXXXXXXXXXXXXXXXXXXXXXXX*#",
"#&@                 XX               *#",
"#,;;;;;;;;;;;;;;;;;;==;;;;;;;;;;;;;;;9#",
"#96%%%%%%%%%%%%%%%%;wg%%%%%%%%%%%%%%%+#",
"#&@OOOOOOOOOOOOOOO2=381OOOOOOOOOOOOOO*#",
"#&@               2=381              *#",
"#&@               2=381              *#",
"#&@               2=381              *#",
"#&@               2=381              *#",
"#&@               2=381              *#",
"#&@               2=381              *#",
"#&@               2=381              *#",
"#&@               2=381              *#",
"#&@               2=381              *#",
"#&@               2=k81              *#",
"#&@               2=k81              *#",
"#&@               2=f81              *#",
"#&@               2=f81              *#",
"#&@               2=381              *#",
"#&@               2=381              *#",
"#&@               2=381              *#",
"#&@               2=f81              *#",
"#&@               2=381              *#",
"#&@               2=381              *#",
"#&@               2=f81              *#",
"#&@               2=38:@             *#",
"#&@               2=f8>o             *#",
"#&@               2=f8>o             *#",
"#&@               2=f8:@             *#",
"#&@               2=381              *#",
"#&@               O=f81              *#",
"#&@               O=381              *#",
"#&@               O=k81              *#",
"#&@               2=k81              *#",
"#&@               2=381              *#",
"#&@               O=k81              *#",
"#&@               O=k81              *#",
"#&@               O=381              *#",
"#&@               2=381              *#",
"#&@          XXXXX =381XXXX          *#",
"#&@OOOOOOOOO@000000=wg0000@ OOOOOOOOO*#",
"#96%%%%%%%%%6oooooo;5gooooo%%%%%%%%%%+#",
"#7,,,,,,,,,,,9,99,,,l%;+,,,,,,,,,,,,,7#",
"#############77,77777;X6*7#############",
"#############7777777#7+*+77############"
};
