/* XPM */
static char *Girl71711113593[] = {
/* columns rows colors chars-per-pixel */
"44 64 187 2 ",
"   c black",
".  c #C1B209",
"X  c #808271",
"o  c #A09306",
"O  c #878B7A",
"+  c #C0B109",
"@  c #0A0900",
"#  c #888C78",
"$  c #030201",
"%  c #080404",
"&  c #BEAF0D",
"*  c #898D79",
"=  c #CF2038",
"-  c #311918",
";  c #3D3F35",
":  c #131311",
">  c #575550",
",  c #5B5751",
"<  c #D32039",
"1  c #858975",
"2  c #261410",
"3  c #454005",
"4  c #110909",
"5  c #C4B509",
"6  c #0E0704",
"7  c #BFB10A",
"8  c #7B7E6C",
"9  c #CC1F38",
"0  c #BC1C39",
"q  c #8A0B41",
"w  c #291415",
"e  c #401F23",
"r  c #1E0D0D",
"t  c #51504B",
"y  c #97935F",
"u  c #27060A",
"i  c #C81D36",
"p  c #FFB365",
"a  c #22231F",
"s  c #19110A",
"d  c #959368",
"f  c #737825",
"g  c #181815",
"h  c #616158",
"j  c #921627",
"k  c #A29E46",
"l  c #5C5A55",
"z  c #4F0B16",
"x  c #68665B",
"c  c #610E1A",
"v  c #7B3D4C",
"b  c #9C113F",
"n  c #931040",
"m  c #CE3E45",
"M  c #ACA438",
"N  c #67352A",
"B  c #6B744C",
"V  c #A8A139",
"C  c #B56C40",
"Z  c #5E2E3B",
"A  c #8C8F7B",
"S  c #C27548",
"D  c #EC9D59",
"F  c #AB143D",
"G  c #D57C4B",
"H  c #DD8950",
"J  c #A69A1B",
"K  c #A2123B",
"L  c #B5A920",
"P  c #F29158",
"I  c #AAA33A",
"U  c #2A2702",
"Y  c #8E840B",
"T  c #8C8F6E",
"R  c #ADA00B",
"E  c #1E1D04",
"W  c #7E836B",
"Q  c #3F2315",
"!  c #8F9064",
"~  c #B1A311",
"^  c #645C05",
"/  c #8D8D47",
"(  c #7A7C42",
")  c #11120E",
"_  c #707143",
"`  c #6C6D60",
"'  c #A6A041",
"]  c #22130E",
"[  c #312F0A",
"{  c #B1634E",
"}  c #926137",
"|  c #A3653F",
" . c #44413C",
".. c #D18A4F",
"X. c #B0901A",
"o. c #9B752F",
"O. c #B47549",
"+. c #845841",
"@. c #32080E",
"#. c #8D4944",
"$. c #C21F36",
"%. c #D54E41",
"&. c #A73542",
"*. c #946043",
"=. c #8F4338",
"-. c #1D2110",
";. c #998E0E",
":. c #622F12",
">. c #705126",
",. c #502830",
"<. c #747569",
"1. c #5A5109",
"2. c #CBBD9E",
"3. c #AFA528",
"4. c #8E8A1D",
"5. c #999535",
"6. c #404418",
"7. c #231C16",
"8. c #CB8A5E",
"9. c #ADA008",
"0. c #BE7E47",
"q. c #9F9B4F",
"w. c #B9AC0E",
"e. c #596530",
"r. c #677039",
"t. c #311F12",
"y. c #9E182A",
"u. c #81661D",
"i. c #9B9718",
"p. c #75795B",
"a. c #6F111E",
"s. c #CBC9AE",
"d. c #4C351E",
"f. c #ABA431",
"g. c #AE2C3D",
"h. c #D9824C",
"j. c #BD3742",
"k. c #7E4654",
"l. c #C7694C",
"z. c #DB5F4B",
"x. c #D87148",
"c. c #C38456",
"v. c #C71F39",
"b. c #D57759",
"n. c #C37D54",
"m. c #FBAA62",
"M. c #EBA061",
"N. c #515641",
"B. c #9B900F",
"V. c #827807",
"C. c #938809",
"Z. c #6B6748",
"A. c #495328",
"S. c #C0844B",
"D. c #4C572A",
"F. c #981829",
"G. c #2F2F2C",
"H. c #37090F",
"J. c #575B1E",
"K. c #7B4B2C",
"L. c #7C102A",
"P. c #2E2E2A",
"I. c #6F7064",
"U. c #A82742",
"Y. c #E96B4F",
"T. c #B34546",
"R. c #878554",
"E. c #C1A321",
"W. c #701E28",
"Q. c #563E22",
"!. c #908532",
"~. c #55323D",
"^. c #A7182C",
"/. c #7F1B45",
"(. c #932538",
"). c #D4B6A1",
"_. c #952746",
"`. c #AA6F20",
"'. c #BF434E",
"]. c #FEAE63",
"[. c #DA8C5C",
"{. c #ACA492",
"}. c #6B6043",
"|. c #311F00",
" X c #D90009",
".X c #00B271",
"XX c #C18206",
/* pixels */
"                                                                                        ",
"                                                                                        ",
"                                                                                        ",
"                                                                                        ",
"                                                                                        ",
"                                                                                        ",
"                                                                                        ",
"                          $ a.j j j j j z                                               ",
"                        $ % y.< < < 9 F K z                                             ",
"                      u F.y.$.= = 9 K q F 0 z                                           ",
"                      H.= < 0 v.= 9 n q F < c                                           ",
"                      @.9 9 b 0 = m &.q b 0 z                                           ",
"              4 d.  6 a.9 9 b j.%.x.G T.&.U.L.u                                         ",
"            t.K...Q.@.9 = = b l.h.G | *.O.%.< c                                         ",
"            } P H ..=.9 v.F n #.*.S *. .+.%.< c                                         ",
"            d.} h.D P v.K q q ~.+.H D O.c.z.< c                                         ",
"              ] G p P 0 q n n Z S m.p p p Y.$.z                         s ] 4           ",
"              u m P x.$.K v.0 n b.].p p m.z.W.g %                   s t.0.D } 4         ",
"              u i m [.b.m 0 b q &.[.M.M.l.v x 8  .: g :   % a a 7.2 S.D H S 0.>.        ",
"              r ^.m ).s.{., /.(.`.#.k.k.o.!.l I.X X X h ) ; s.2.8.G ..O.| 2 6 %         ",
"                @.v.'.A X , =.X.=._.#.k.o.f.p.t ` A 8 l t <.2.8.C 0.Q % %               ",
"                u i j.X 8 , J & y n.n.y V . k ; ; x t > > l ` x 7.% $                   ",
"                u i g.x 8 , J 7 y c.d L + . ' ;   $ : t ,  .% $                         ",
"                % c g.l h , J . L E.L & + + ' ;     % g g :                             ",
"                  % e > > , R.L . + . + . i._ G.                                        ",
"                    : t > t P.[ o 7 & & f.( B ;                                         ",
"                    % : : : $   J.f f f r.r.p./ 3                                       ",
"                                ) D.e.e.B W 1 d ;                                       ",
"                                  A.B B 8 * # A ;                                       ",
"                                3 _ 1 * # # # * N.-.$                                   ",
"                              3 R d O # # # # # / f @                                   ",
"                          $ 3 R M T # # # # # O I o @                                   ",
"                          $ C.M T # # # # # # O I o @                                   ",
"                          $ Y y O # # # # # # # y 5.1.$                                 ",
"                      % g g 4.y # # # # # # # # O d B.@                                 ",
"                      a W X 1 # # # # # # # # # O d ;.@                                 ",
"                      a 1 # # # # # * # # # # # T q.;.@                                 ",
"                    $ a 1 # # # # # X 1 # # # O ' . o @                                 ",
"                      a W # # # # 8 h X * # # O V 7 Y @                                 ",
"                      E ( # # # 8 h x 1 # # # O I R 6.$                                 ",
"                      [ 3.# # 1 h , X # # # # O I o @                                   ",
"                    $ [ w.3.! ` , l X * # # # O I o @                                   ",
"                  E Y o + 7 ( , , <.# # # # # # M o @                                   ",
"                  U & . + 7 ~ J Z.X * # # # # k & o @                                   ",
"                  U ~ + + + . & _ X * # # # k & 5 o @                                   ",
"                  $ 3 + 5 + + 7 ~ ! O O O q.& . 5 o @                                   ",
"                    s ^ V.5 . + 7 V k k / 5.. . X.u.@                                   ",
"                        E ^ 9.5 . . & i.f 4.5 X.| #.%                                   ",
"                            3 ^ 9.5 w.6.a 3 u.+.{ C 6                                   ",
"                              % >.o.1.@     e v { C 6                                   ",
"                              $ Z v 4       : Z { C 6                                   ",
"                              $ e ,.6         w N N r                                   ",
"                              $ w - %         r - - w $                                 ",
"                              $ w - 4       $ ] - - w $                                 ",
"                              $ w e Q %   4 - Q e e ] $                                 ",
"                              $ w Z :.6   - N :.N ,.%                                   ",
"                                r 2 ] %   4 2 2 2 r $                                   ",
"                                                                                        ",
"                                                                                        ",
"                                                                                        ",
"                                                                                        ",
"                                                                                        ",
"                                                                                        ",
"                                                                                        "
};
