/* XPM */
static char *Girl61711113593[] = {
/* columns rows colors chars-per-pixel */
"44 64 185 2 ",
"   c black",
".  c #BFB00C",
"X  c #504A04",
"o  c #878B7A",
"O  c #CE2038",
"+  c #C1B209",
"@  c #0C0504",
"#  c #888C78",
"$  c #040301",
"%  c #898D79",
"&  c #5B5954",
"*  c #C4B508",
"=  c #7E816E",
"-  c #575550",
";  c #131411",
":  c #A7A13D",
">  c #838673",
",  c #1B090A",
"<  c #B3A60E",
"1  c #868A76",
"2  c #3F3E39",
"3  c #484205",
"4  c #590D18",
"5  c #6F7164",
"6  c #616059",
"7  c #4E4E46",
"8  c #311918",
"9  c #2D070C",
"0  c #2B1614",
"q  c #66665B",
"w  c #8F1141",
"e  c #FFB264",
"r  c #1E1F1A",
"t  c #808372",
"y  c #9C951D",
"u  c #821423",
"i  c #BAAC0C",
"p  c #A59F40",
"a  c #B6AB1B",
"s  c #ED9957",
"d  c #C51E38",
"f  c #B2624E",
"g  c #8A0A40",
"h  c #380712",
"j  c #22231F",
"k  c #7A7D6C",
"l  c #57574C",
"z  c #46251B",
"x  c #2F2B01",
"c  c #D31F38",
"v  c #C3B409",
"b  c #573421",
"n  c #5B6532",
"m  c #95945B",
"M  c #5F5E4D",
"N  c #8C842B",
"B  c #38211A",
"V  c #100F01",
"C  c #D02639",
"Z  c #391C25",
"A  c #C2B309",
"S  c #AA9C09",
"D  c #743F48",
"F  c #DA814D",
"G  c #938C31",
"H  c #DA6247",
"J  c #9C103E",
"K  c #100D09",
"L  c #5E5707",
"P  c #2A2D1A",
"I  c #8A6036",
"U  c #76796A",
"Y  c #2D2C2B",
"T  c #714327",
"R  c #B0A629",
"E  c #430916",
"W  c #432427",
"Q  c #6D6F61",
"!  c #4C2D1E",
"~  c #71772D",
"^  c #0E0707",
"/  c #686D2F",
"(  c #3E1E15",
")  c #CA2038",
"_  c #606C36",
"`  c #CD1F38",
"'  c #ADA116",
"]  c #B81A3C",
"[  c #69604E",
"{  c #D46E48",
"}  c #D6383E",
"|  c #A1994B",
" . c #CB6B48",
".. c #FBAA61",
"X. c #C26247",
"o. c #A76946",
"O. c #AE6C54",
"+. c #606354",
"@. c #6E4C2B",
"#. c #835230",
"$. c #261314",
"%. c #827C5D",
"&. c #868856",
"*. c #787014",
"=. c #393509",
"-. c #34332E",
";. c #5A5C4D",
":. c #B8B69E",
">. c #191308",
",. c #633128",
"<. c #485027",
"1. c #B41C30",
"2. c #9E5C38",
"3. c #23140E",
"4. c #42200F",
"5. c #5C2E3A",
"6. c #898920",
"7. c #1A1801",
"8. c #333713",
"9. c #867B07",
"0. c #777739",
"q. c #DC8F53",
"w. c #B2373F",
"e. c #C93A44",
"r. c #A71B2D",
"t. c #D1844D",
"y. c #B93545",
"u. c #C87647",
"i. c #A9143D",
"p. c #A87032",
"a. c #A73744",
"s. c #BB6B42",
"d. c #F38A58",
"f. c #AFA236",
"g. c #6E4F40",
"h. c #D27B4A",
"j. c #F3A05E",
"k. c #B87647",
"l. c #989261",
"z. c #895761",
"x. c #C58156",
"c. c #514A04",
"v. c #707153",
"b. c #242313",
"n. c #949783",
"m. c #A09936",
"M. c #898B70",
"N. c #88813A",
"B. c #291514",
"V. c #B69979",
"C. c #64300E",
"Z. c #353431",
"A. c #E0DCBD",
"S. c #5A5944",
"D. c #491D22",
"F. c #C54350",
"G. c #71101D",
"H. c #D1515D",
"J. c #985543",
"K. c #604A40",
"L. c #7E2936",
"P. c #DB4F45",
"I. c #A59517",
"U. c #D58070",
"Y. c #A06E6B",
"T. c #D78D78",
"R. c #DAC6A3",
"E. c #7E5742",
"W. c #D98B50",
"Q. c #B85847",
"!. c #A7222F",
"~. c #E58F53",
"^. c #9A7168",
"/. c #C28E43",
"(. c #654C3F",
"). c #862B32",
"_. c #775F34",
"`. c #B79411",
"'. c #B25C36",
"]. c #DF825C",
"[. c #9D612B",
"{. c #AB8668",
"}. c #B2000C",
"|. c #00B004",
" X c #BF4A7A",
/* pixels */
"                                                                                        ",
"                                                                                        ",
"                                                                                        ",
"                                                                                        ",
"                                                                                        ",
"                                                                                        ",
"                                                                                        ",
"                                      9 h h h ,                                         ",
"                                  9 E 1.` ) O u ,                                       ",
"                      $ $       @ r.O O O O O c 4                                       ",
"                      B I @ $ @ u d O O O O O c 4                                       ",
"                      z W.s.!.r.d i.d O O O O O 4                                       ",
"                    0 s.~...d.} d J d C C C C ] E                                       ",
"                    ( F ..d.} ) J w X. .{ {  .a.h                                       ",
"                  9 1.P.j.H ` J w Q.g.g.u.o.K.W @                                       ",
"                  9 ) } F H ` J w X.(.o.h.h.E.L.4                                       ",
"                E u e.U.{ e.i.w w X.o.q.s s k.w.4                                       ",
"                u c H.R.H ] g g w  .s e e e ..H 4                   @.I I >.            ",
"                u c F.:.T.] g g g a.j.e e e ].).,                 @.q.s #.K             ",
"              $ 9 G.y.# Y.y.z.z.D [.O.O.O.f '._.7 j           3.#.t.s T @               ",
"                  9 w.q [ ^.% 5 G i k.f f p.`.G = Q r     j %.2.F T b K                 ",
"                  @ D.- & q q G i p t.F {.f.y [ 6 = 5 2 ; U A.V.! ^                     ",
"                    ; - - & q ' . l.x.x.l.f.N - - Q t q -.n.:.U                         ",
"                    ; - 7 S.m a . | /.| a A N 7 2 7 & - 6 5 -.$                         ",
"                    K 2 Y =.. + + + . . + + y 8.  Z.& & - Y $                           ",
"                          =.R . A R . + + + * L   j 2 2 Y $                             ",
"                          r ;.*.y &.y i + + < 3                                         ",
"                                <.n _ ' i . 6.P                                         ",
"                              $ <.n n / ~ ~ / P                                         ",
"                              V 7 M ;.l l l M P                                         ",
"                            $ *.&.t = 6 & & N.L $                                       ",
"                            $ v.% % # > > > M.m.3                                       ",
"                        $ ; ; Q % # # # # # o : L $                                     ",
"                        j k k 1 # # # # # # o : i 3                                     ",
"                        j # % # # # # # # # o : * c.                                    ",
"                    ; 7 +.# # # # # # # # # o : * X                                     ",
"                  ; +.% % # # # # # # # # # o : * X                                     ",
"                  r 1 # # # # # # # # # # # o : * X                                     ",
"                  r > # # # # # 1 5 > # # # o : * X                                     ",
"                  @ 2 1 # # # # 1 6 t % # % U G * X                                     ",
"                    b.m # # # # 1 q t % # % 5 N * X                                     ",
"                    x R # # # # k 6 t % # % 5 N * X                                     ",
"                    x a m # # 1 6 & t % # # %.y * X                                     ",
"                    x . a m o k & & t % # o p + v X                                     ",
"                    7.9.+ a | [ - & t % # o p + v X                                     ",
"                      x < + . 0.M M = # # o p + v X                                     ",
"                      $ 3 < + < < ' 0.= > > p A . 3                                     ",
"                          3 S . v A < ~ _ _ 6.< p.B                                     ",
"                          $ 7.9.S S S I./ n 8.! f b                                     ",
"                              V V V 7.D D W   W f T @                                   ",
"                                    $ 5.D Z   Z J.u.!                                   ",
"                                    $ 8 B ,   $ 3.2.b                                   ",
"                                    $ 0 8 ,     , b z ,                                 ",
"                                    $ 0 8 0 ^ ^ 0 8 8 B.                                ",
"                                    $ 8 5.,.4.4.C.,.W $.                                ",
"                                    $ 0 W z ( ( z z $.@                                 ",
"                                      @ ^ ^ ^ ^ ^ ^ $                                   ",
"                                                                                        ",
"                                                                                        ",
"                                                                                        ",
"                                                                                        ",
"                                                                                        ",
"                                                                                        ",
"                                                                                        "
};
