/* XPM */
static char *Girl91711113592[] = {
/* columns rows colors chars-per-pixel */
"45 64 178 2 ",
"   c black",
".  c #070605",
"X  c #595850",
"o  c #898D79",
"O  c #C2B209",
"+  c #5B6631",
"@  c #CE1F38",
"#  c #888C78",
"$  c #C0B10A",
"%  c #040201",
"&  c #0B0B07",
"*  c #828372",
"=  c #170C0A",
"-  c #171303",
";  c #5D6931",
":  c #C4B409",
">  c #575550",
",  c #0C0304",
"<  c #A89E19",
"1  c #757869",
"2  c #DC834D",
"3  c #BDAF0B",
"4  c #241410",
"5  c #10110E",
"6  c #1E0408",
"7  c #D12039",
"8  c #B1A40A",
"9  c #C91F36",
"0  c #3F3F38",
"q  c #1F1D06",
"w  c #5B613E",
"e  c #BBAE10",
"r  c #8B8E72",
"t  c #110607",
"y  c #B8AC1B",
"u  c #110E04",
"i  c #625F56",
"p  c #5C5A53",
"a  c #7A7C6C",
"s  c #B8AB0D",
"d  c #413C04",
"f  c #858874",
"g  c #331B17",
"h  c #484841",
"j  c #9C133F",
"k  c #2E2C28",
"l  c #301716",
"z  c #AD1A2F",
"x  c #C97648",
"c  c #B6193A",
"v  c #68685E",
"b  c #6A722B",
"n  c #484F28",
"m  c #402024",
"M  c #34342F",
"N  c #C0B109",
"B  c #171813",
"V  c #B0A413",
"C  c #C0B10D",
"Z  c #B2A724",
"A  c #B71C31",
"S  c #904E4A",
"D  c #707063",
"F  c #C51D39",
"G  c #470B13",
"H  c #BE1D36",
"J  c #D17049",
"K  c #901242",
"L  c #EB9659",
"P  c #8B0A41",
"I  c #3A411B",
"U  c #333919",
"Y  c #AC9F08",
"T  c #52524A",
"R  c #9E961A",
"E  c #7F7836",
"W  c #393834",
"Q  c #282A21",
"!  c #261D17",
"~  c #372415",
"^  c #D47C4A",
"/  c #28060B",
"(  c #FDAE63",
")  c #B36447",
"_  c #979657",
"`  c #2A2B0C",
"'  c #9B9008",
"]  c #5A2B12",
"[  c #7C7E6E",
"{  c #371C1C",
"}  c #532A2A",
"|  c #8B8D63",
" . c #97901B",
".. c #818021",
"X. c #4D4C46",
"o. c #5C5E47",
"O. c #46311B",
"+. c #714A2A",
"@. c #917A20",
"#. c #941627",
"$. c #6F6D4D",
"%. c #935733",
"&. c #C1824A",
"*. c #E3975A",
"=. c #864152",
"-. c #91284A",
";. c #9F172D",
":. c #D0363D",
">. c #2B060B",
",. c #CE7C4C",
"<. c #911E3D",
"1. c #A89A08",
"2. c #7C7747",
"3. c #482312",
"4. c #51571F",
"5. c #776E06",
"6. c #A95E4B",
"7. c #4E2616",
"8. c #4C2630",
"9. c #713B47",
"0. c #57622D",
"q. c #737828",
"w. c #5B311C",
"e. c #CDC9AC",
"r. c #3A0811",
"t. c #F09F5B",
"y. c #A25F38",
"u. c #DB9554",
"i. c #BEC2A8",
"p. c #CE9065",
"a. c #A0952B",
"s. c #633F24",
"d. c #9B9648",
"f. c #761220",
"g. c #A81C36",
"h. c #A12241",
"j. c #A89A48",
"k. c #35080E",
"l. c #7B5541",
"z. c #9D363D",
"x. c #B99E12",
"c. c #C38157",
"v. c #A7A03C",
"b. c #626826",
"n. c #8E8815",
"m. c #575005",
"M. c #857E37",
"N. c #B68A26",
"B. c #5A2D37",
"V. c #867F34",
"C. c #592D36",
"Z. c #535B35",
"A. c #7E826C",
"S. c #422C13",
"D. c #B1981A",
"F. c #675F07",
"G. c #636B31",
"H. c #969A86",
"J. c #885C34",
"K. c #9C9F8B",
"L. c #949784",
"P. c #544131",
"I. c #8E6137",
"U. c #9D7252",
"Y. c #8E0E39",
"T. c #B77A46",
"R. c #CD273A",
"E. c #783B3C",
"W. c #C0933C",
"Q. c #C67558",
"!. c #BC6748",
"~. c #644A3F",
"^. c #8C6448",
"/. c #BA931B",
"(. c #AC2437",
"). c #CE8B3F",
"_. c #000650",
"`. c #075879",
/* pixels */
"                                                                                          ",
"                                                                                          ",
"                                                                                          ",
"                                                                                          ",
"                                                                                          ",
"                                        % 6 6 6 %                                         ",
"                                      6 G A H z G / >.6                                   ",
"                                  % r.A 9 @ @ j g.c 9 ;.%     . ~ O.=                     ",
"                                  , z 7 @ @ @ j P K c ;.G t   - u.t.J.=                   ",
"                                  , z 7 @ @ R.j K K P j 9 k.  - u.2 t.O.                  ",
"                                  , #.F F :.J J !.) <.j 9 k.  = x 2 L O.                  ",
"                                  % r.Y.h.J 2 ^ l.~.) j 9 G % = T.2 2 w.%                 ",
"                                  , ;.F h.) ) ,.x ^.x j H A /   4 %.x x P..               ",
"                                  , z 7 H E.l.,.L ( L K P c >.    % s.p.e.Q               ",
"                                  , z 7 @ :.^ L ( ( Q.K P c >.      % K.i.W %             ",
"                              % t 6 z 7 @ :.J J L *.=.<.<.(.l 5 5 5 . L.H.> &             ",
"                            % G A A 9 @ @ c -.z.z.S S /.x.@.D 1 a a M X v T &             ",
"                            / H 7 @ @ @ c -.* a.x.&.,.).Z s E i a * i k h T &             ",
"                            >.9 @ @ @ F K =.# $.< j.c.c.r Z s $.p p X > > 0 .             ",
"                            6 #.7 7 @ F -.* 1 i V e j.W.d.y C d.0 W X.p > 5               ",
"                    4 +.s..   6 f.f.H F =.a X ..s O $ N O $ O Y -   ! M k &               ",
"                . 4 +.( *.~       % #.g.i 1 p < O $ $ C y C O < -                         ",
"                ! &.*.2 2 &.~ ! k B ! k p > h  .$ O $ < | a.< $.&                         ",
"                  ~ y.y.2 2 ^ p.e.D D 1 1 h . I  .< R G.; ; 0.5                           ",
"                    % u I.%.%.U.i.D X > 0 k   . n ; ; + + + Z.&                           ",
"                              B X.W M k %     . n w w w w w i Q %                         ",
"                                              . n X > X p i A.G.&                         ",
"                                              % h X i v * f r R `                         ",
"                                              5 X.v * # # # r y ' q .                     ",
"                                          . B T v * # # # # r y s ..`                     ",
"                                      . k 0 v * # o # # # # _ e N $ d                     ",
"                              5 0 0 0 h f o # # # # # # # r y O $ $ d                     ",
"                          5 B M # o o o # # # # # # # # # r Z O $ O d                     ",
"                      % Q 1 * * # # # # # # # # # # # # o | y O 3 V d                     ",
"                      . T a [ * o o # # # # # # # # # # o Z N O 8 4.B                     ",
"                        . M W h 1 1 f # # # # # # # # f 1 Z O O 1.u                       ",
"                              q E M.f # # # # # # # o | V.V O 3 ..&                       ",
"                            u 5.N C v.r # # # # o f D 2.3 $ O 8 U %                       ",
"                          % d 3 $ N e _ # o o # * a p E 3 $ O Y -                         ",
"                        % d 8 $ $ $ $ y _ [ [ a i p E s $ $ O Y -                         ",
"                        - 1.O $ $ $ $ O V 2.X X > w R 3 $ $ O Y -                         ",
"                        - 8 : $ $ $ $ $ O < X > o.+ b s $ $ 3 n.u                         ",
"                        & m.5.$ O $ $ $ O < X o.+ + b s $ $ e b.&                         ",
"                            q ' ' s O $ V  .o.+ + + b e $ $ s 4..                         ",
"                              - S.@.D.R b ; + + + + b < $ O 8 q                           ",
"                              g x S 9.n n + ; ; + + + q.3 O 8 q                           ",
"                            t +.^ S 8.. & U I I 0.; + q.C : 8 q                           ",
"                            g 6.6.} .         % ` U U I F.@.N.q                           ",
"                          . m 9.8.t                       m S l                           ",
"                          t m C.l ,                       4 B.{ %                         ",
"                        % l g g g ,                   , t 4 { l %                         ",
"                        = 3.7.m 4 .                 = 3.7.} { 4 %                         ",
"                      % l ] w.m                   % g ] ] } 4 %                           ",
"                        = = = t                   % = = = = %                             ",
"                                                                                          ",
"                                                                                          ",
"                                                                                          ",
"                                                                                          ",
"                                                                                          ",
"                                                                                          ",
"                                                                                          ",
"                                                                                          ",
"                                                                                          ",
"                                                                                          "
};
