/* XPM */
static char *Girl21711113593[] = {
/* columns rows colors chars-per-pixel */
"44 64 171 2 ",
"   c black",
".  c #100A08",
"X  c #575651",
"o  c #090705",
"O  c #706706",
"+  c #8A8E7A",
"@  c #CF1F38",
"#  c #888C78",
"$  c #050303",
"%  c #C0B109",
"&  c #20201C",
"*  c #C6B608",
"=  c #A7A039",
"-  c #341A18",
";  c #C2B308",
":  c #5A5952",
">  c #D32039",
",  c #ADA52F",
"<  c #B7193B",
"1  c #D55D44",
"2  c #2B060C",
"3  c #383932",
"4  c #3E1E19",
"5  c #B5AA21",
"6  c #890A41",
"7  c #FEB164",
"8  c #2A2B24",
"9  c #585C43",
"0  c #797768",
"q  c #7A7E6D",
"w  c #37070E",
"e  c #B6A910",
"r  c #EF9658",
"t  c #C57549",
"y  c #AB6C44",
"u  c #6D4F40",
"i  c #C5B508",
"p  c #1F1E08",
"a  c #6F7063",
"s  c #848976",
"d  c #2E3218",
"f  c #31322B",
"g  c #494A43",
"h  c #2C2801",
"j  c #878B7A",
"k  c #636359",
"l  c #180D0A",
"z  c #4D2A1B",
"x  c #7F8372",
"c  c #371F19",
"v  c #8F8B20",
"b  c #BBAC09",
"n  c #714029",
"m  c #A7A040",
"M  c #0F0104",
"N  c #807A35",
"B  c #5D5E58",
"V  c #5C5504",
"C  c #9D9221",
"Z  c #4D4C14",
"A  c #6C6D61",
"S  c #3E3902",
"D  c #151515",
"F  c #737567",
"G  c #ABA00E",
"H  c #49252B",
"J  c #643D24",
"K  c #422F18",
"L  c #686F36",
"P  c #6F7628",
"I  c #CC1F37",
"U  c #8E6234",
"Y  c #B8713C",
"T  c #593A21",
"R  c #211011",
"E  c #5A5F40",
"W  c #875131",
"Q  c #503828",
"!  c #9B182A",
"~  c #E99456",
"^  c #F6A45E",
"/  c #B74D47",
"(  c #8A1525",
")  c #ACA42B",
"_  c #AA1A2E",
"`  c #5A6731",
"'  c #202410",
"]  c #653225",
"[  c #95911A",
"{  c #353209",
"}  c #C5B60A",
"|  c #8A1424",
" . c #898425",
".. c #D78D50",
"X. c #2E1813",
"o. c #565451",
"O. c #400A11",
"+. c #1E020C",
"@. c #776F3A",
"#. c #4E0B14",
"$. c #B45A5D",
"%. c #938E44",
"&. c #9E9916",
"*. c #AE634A",
"=. c #5A6239",
"-. c #BE9E2B",
";. c #878138",
":. c #C01B3A",
">. c #A49550",
",. c #8C5741",
"<. c #9D2541",
"1. c #8D6E69",
"2. c #E18C51",
"3. c #D47E4E",
"4. c #A3133D",
"5. c #B22C36",
"6. c #DA6F49",
"7. c #BD825D",
"8. c #B73D46",
"9. c #D5795C",
"0. c #74212B",
"q. c #930E40",
"w. c #D84542",
"e. c #AA464A",
"r. c #BD6B4C",
"t. c #A16645",
"y. c #A56255",
"u. c #99985C",
"i. c #979A88",
"p. c #3E3E23",
"a. c #949569",
"s. c #9C9615",
"d. c #704729",
"f. c #8D8D60",
"g. c #6A6106",
"h. c #73482A",
"j. c #A68E72",
"k. c #C5CAB1",
"l. c #E5E3C3",
"z. c #3D2C2C",
"x. c #66310E",
"c. c #550D17",
"v. c #504D2A",
"b. c #79101F",
"n. c #72384A",
"m. c #231018",
"M. c #973F47",
"N. c #522834",
"B. c #927032",
"V. c #7D7F23",
"C. c #665954",
"Z. c #EC7E54",
"A. c #D24A57",
"S. c #C2B898",
"D. c #946967",
"F. c #FCA05F",
"G. c #785259",
"H. c #D47E7D",
"J. c #E35248",
"K. c #848042",
"L. c #B79E10",
"P. c #620E1A",
"I. c #D8947E",
"U. c #D9AF83",
"Y. c #C84140",
"T. c #AE632E",
"R. c #BF8556",
"E. c #BE8536",
"W. c #E18859",
"Q. c #000A51",
"!. c #105605",
/* pixels */
"                                                                                        ",
"                                                                                        ",
"                                                                                        ",
"                                                                                        ",
"                                                                                        ",
"                                                                                        ",
"                                                                                        ",
"                                          $ 2 ( ( ( 2                                   ",
"                                          2 _ > > > _ ! c.                              ",
"                                          w I @ @ @ @ > ! 2     Q K                     ",
"                                          w I @ @ @ @ :.:.! P.n ..W                     ",
"                                          2 < @ @ @ @ < 4.@ J.F.2.y c                   ",
"                                          +.<.1 1 1 1 8.q.< w.r ^ ~ J                   ",
"                                          M 4 u y t.u ,.e.q.< 6.7 Z.5.w                 ",
"                                          2 0.u t t u u / 6 < 1 2.1 @ #.                ",
"                                          w 5.y r ~ y t./ 6 4.Y.6.9.A.| +.              ",
"                  K U U J                 w w.^ 7 7 ^ ~ / 6 6 < 1 U.H.@ O.              ",
"                  d.r ~ ..J               M 0.9.7 7 7 W.<.6 6 < I.S.$.I O.              ",
"                  J Y h.~ t z $ $       3 B @.T.e.y.y.y U G.1.8.D.s $.b.M               ",
"                  l X.. c n Y j.x o   3 q x K.L.Y r.r.E.e ;.q 1.C.: M.#.                ",
"                          o 0 l.k.g 8 x F B : v m 7.3.R.m e N B : X z.M                 ",
"                            f j i.A g F k X o.N 5 >.3.7.>.; %.B X : 8                   ",
"                              . 3 k : X 3 & f  .; 5 -.-.5 % 5 v.g : 8                   ",
"                                $ f o.X &   { G % % % % % % % S D & .                   ",
"                                  o D D o   S % % % % ) = b = d                         ",
"                                          $ ' [ ; ; v L L Z p o                         ",
"                                            ' P v v P ` ` d                             ",
"                                            & 9 9 9 9 9 E 8                             ",
"                                            { N X X A 0 0 N h                           ",
"                                          p  .f.q q s # # a.p.                          ",
"                                        $ S , # # # # # # + 3 o                         ",
"                                        V G , # # # # # # # q a &                       ",
"                                        O * , # # # # # # # # s &                       ",
"                                        O i , # # # # # # # # # k X 8                   ",
"                                        O i , # # # # # # # # # + + F &                 ",
"                                        O i , # # # # # # # # # # # + 3                 ",
"                                        O i ) s # # # # # # # # # # x f                 ",
"                                        O * C a # # # # # # # # # + g $                 ",
"                                        O * C A # # # # # # # # # u.Z                   ",
"                                        O * C A # # # # # # # # j m V                   ",
"                                        O } e ;.0 # # # # # # # = 5 V                   ",
"                                        O } G L a # # # # # # = % s.d                   ",
"                                        O * &.E : 0 + j j j m % * O $                   ",
"                                        O * &.E X k %.= = = 5 % O h                     ",
"                                        T B.P =.E N e ; ; ; % g.o                       ",
"                                        n *.Q d V.e b b b [ Z .                         ",
"                                      $ W t N.$ Q ,.K h h p $                           ",
"                                      T t *.H   c n.m.                                  ",
"                                      n W - o   R 4 .                                   ",
"                                    o z z R     l - .                                   ",
"                                    l - - - l . X.- .                                   ",
"                                    . H ] x.z 4 ] H .                                   ",
"                                      R 4 4 c - 4 - .                                   ",
"                                        $ $ $ $ $ $                                     ",
"                                                                                        ",
"                                                                                        ",
"                                                                                        ",
"                                                                                        ",
"                                                                                        ",
"                                                                                        ",
"                                                                                        ",
"                                                                                        ",
"                                                                                        ",
"                                                                                        "
};
