/* XPM */
static char *Girl81711113593[] = {
/* columns rows colors chars-per-pixel */
"44 64 185 2 ",
"   c black",
".  c #8B8F7A",
"X  c #170C0B",
"o  c #575551",
"O  c #CE2038",
"+  c #5B6731",
"@  c #100405",
"#  c #888C78",
"$  c #C0B109",
"%  c #C2B208",
"&  c #0A0404",
"*  c #050403",
"=  c #7D816F",
"-  c #787B6C",
";  c #595850",
":  c #141412",
">  c #5C5B55",
",  c #3C3804",
"<  c #C4B509",
"1  c #C2B309",
"2  c #0B0A04",
"3  c #CF2038",
"4  c #DC824E",
"5  c #878C7A",
"6  c #5D6932",
"7  c #0E0F0D",
"8  c #ABA334",
"9  c #B41837",
"0  c #C01C37",
"q  c #858875",
"w  c #5A603C",
"e  c #A79F13",
"r  c #A09917",
"t  c #331A1A",
"y  c #B6A90D",
"u  c #34332F",
"i  c #737568",
"p  c #26190D",
"a  c #29060B",
"s  c #68685F",
"d  c #D22139",
"f  c #64111E",
"g  c #AC163C",
"h  c #BDAF0A",
"j  c #4E4804",
"k  c #261312",
"l  c #430A12",
"z  c #6E7062",
"x  c #25241E",
"c  c #791221",
"v  c #C61E38",
"b  c #8C0C41",
"n  c #CF774C",
"m  c #6B6205",
"M  c #5C580B",
"N  c #646657",
"B  c #3E3F37",
"V  c #522A2E",
"C  c #606B30",
"Z  c #272C15",
"A  c #4C2625",
"S  c #1F2215",
"D  c #383734",
"F  c #3E2315",
"G  c #7A7438",
"H  c #1A1917",
"J  c #464740",
"K  c #424238",
"L  c #616058",
"P  c #4C4C46",
"I  c #857F2E",
"U  c #BE6A46",
"Y  c #AB763C",
"T  c #A22A45",
"R  c #2E2C04",
"E  c #202007",
"W  c #3A421F",
"Q  c #ACA216",
"!  c #5E3025",
"~  c #4E2613",
"^  c #929045",
"/  c #1E0F10",
"(  c #787219",
")  c #585B41",
"_  c #15180C",
"`  c #5D6830",
"'  c #3D1F23",
"]  c #31381A",
"[  c #87833F",
"{  c #A1984F",
"}  c #302F2B",
"|  c #998F25",
" . c #A39E42",
".. c #606535",
"X. c #BA1C33",
"o. c #803E45",
"O. c #2C191C",
"+. c #B9AD18",
"@. c #5A0E18",
"#. c #AE9817",
"$. c #931241",
"%. c #A2123D",
"&. c #BC9034",
"*. c #B77A4D",
"=. c #AF6C44",
"-. c #ED9858",
";. c #E48D52",
":. c #855B63",
">. c #E18B50",
",. c #D57D48",
"<. c #D25A43",
"1. c #F6A560",
"2. c #FFB264",
"3. c #99303D",
"4. c #9C6446",
"5. c #8D8F6F",
"6. c #7E804B",
"7. c #464518",
"8. c #4C5629",
"9. c #8E8C1D",
"0. c #5C2C10",
"q. c #858622",
"w. c #1E0508",
"e. c #574112",
"r. c #6A3543",
"t. c #A19508",
"y. c #BCAF14",
"u. c #63604D",
"i. c #A25F38",
"p. c #72111F",
"a. c #46311C",
"s. c #38080F",
"d. c #656342",
"f. c #3F0A11",
"g. c #A7AB96",
"h. c #6E6A48",
"j. c #D6BA97",
"k. c #745133",
"l. c #4F331D",
"z. c #2D1F12",
"x. c #7D4A2C",
"c. c #988811",
"v. c #9E6A3C",
"b. c #74502D",
"n. c #6B463D",
"m. c #AEA52E",
"M. c #C1704B",
"N. c #905331",
"B. c #9A6239",
"V. c #CA1E38",
"C. c #AD6452",
"Z. c #914F4A",
"A. c #B64649",
"S. c #A24745",
"D. c #978963",
"F. c #8C1E42",
"G. c #A73745",
"H. c #880740",
"J. c #64661D",
"K. c #252913",
"L. c #858668",
"P. c #736A06",
"I. c #B3A824",
"U. c #9B8E07",
"Y. c #939363",
"T. c #A39E38",
"R. c #767B26",
"E. c #774529",
"W. c #CBD0B5",
"Q. c #CF8E50",
"!. c #CB263A",
"~. c #BA213C",
"^. c #8C5F36",
"/. c #931728",
"(. c #AE977A",
"). c #B1B6A2",
"_. c #881524",
"`. c #8A706D",
"'. c #BDA02B",
"]. c #B08A5A",
"[. c #BE9F10",
"{. c #5D473E",
"}. c #852540",
"|. c #E1975F",
" X c #8B0C51",
/* pixels */
"                                                                                        ",
"                                                                                        ",
"                                                                                        ",
"                                                                                        ",
"                                                                                        ",
"                                        @ w.w.@                                         ",
"                                    @ a c 0 X.c a a a &                                 ",
"                                  @ p.v V.d 9 %.9 0 0 a       z.a.p                     ",
"                                  l O O O 3 9 b b %.9 f a     Y 1.Y p                   ",
"                                  l 3 3 O d ~.$.$.b b 0 c     Y ;.-.k.                  ",
"                                  s.X.v !.<.n U U G.b 0 c     B.4 -.b.                  ",
"                                  @ f $.A.4 4 =.{.4.T 0 _.@   ^.4 4 x.&                 ",
"                                  f.v 9 S.=.M.,.4.*.G.g v @.  2 x.U ,.k.7               ",
"                                  l O O 3.n.4.;.-.2.A.H.g f     * F *.j.K               ",
"                                  l O O O <.>.1.2.|.T H.g f         i W.P *             ",
"                              & @ @.O O O <.n 4 1.C.}.F.g f 7 7 7 * z g.L :             ",
"                            @ c X.0 O 3 v T 3.3.S.Z.Y [.c.h.i - = J J s o :             ",
"                            @.O 3 3 O v %.:.D.#.&.n ,.'.+.| u.i = z u B o :             ",
"                            f d O O 3 g F.`.- I m.].n D. .$ [ > > ; o o J 7             ",
"                            f.9 d d 3 g :.= s I % 8 &.{ 8 % 8 ) D J ; ; H               ",
"                    F b.l.    l p./.d T :.s d.r % $ $ % $ $ $ ,   : u } 7               ",
"                2 p v.2.*.X       s.9 o.z s G % $ $ % +.y.% y.,                         ",
"                a.Q.;.4 >.B.p x x H O.K L P ..y % % y ^ ^ Q [ x                         ",
"                * l.i.=.>.4 n j.).L i - s S _ ( e e R.6 6 C Z                           ",
"                      z.v.N.N.(.g.> > P D :   Z 6 ` ` + + + S                           ",
"                              } P u u H       Z ..w w w w N K 2                         ",
"                                              Z ) o o > > i 6.E                         ",
"                                              x ; > L - q q T.j *                       ",
"                                            * } > - q # # # 8 y , 2                     ",
"                                          7 u N - # # # # 5 8 $ 9.7.                    ",
"                                      H u ; i # # # # # # Y.I.$ < m                     ",
"                              x K B B N . # # # # # # # 5  .% $ < m                     ",
"                        * : : ; . . . # # # # # # # # # 5  .% $ < m                     ",
"                      * B = = q # # # # # # # # # # # # 5.8 % $ y M                     ",
"                      : N = = q # # # # # # # # # # # 5 { $ $ h J.K.                    ",
"                        : D D > - = # # # # # # # # # - ^ % $ h R                       ",
"                              7.I 6.5 # # # # # # # # [ | % $ r E                       ",
"                            R U.< +.{ 5 # # # # # - z Q 1 $ $ M 2                       ",
"                          2 P.< $ % m.5.5 # # q = s d.Q % $ $ ,                         ",
"                        2 m h $ $ $ $ 8 L.- = z ; h.r $ $ $ $ ,                         ",
"                        , h $ $ $ $ $ $ | u.o o ; I y % $ $ $ ,                         ",
"                        , 1 1 $ $ $ $ $ $ G o ; w + r % $ $ e R                         ",
"                        E M c.< 1 $ $ $ % G o w + + r % $ % q.S                         ",
"                            j t.t.$ 1 y Q G ) + + + r 1 $ % ( _                         ",
"                              p e.#.#.q.C ` + + + + 9.h $ 1 j                           ",
"                              E.M.o.n.W 8.6 6 6 + + C e % 1 j                           ",
"                            p i.M.r.O.  S W W 8.6 6 C Q < 1 j                           ",
"                          & ! C.Z.O.          _ ] ] ] M ( &.e.                          ",
"                          X V r.'                       / o.V *                         ",
"                          X V A k                       X V A @                         ",
"                        @ t t t k                   & 2 / t t @                         ",
"                      * k ~ A t X                 & F ~ A ' k &                         ",
"                      & F 0.! k                   / ~ 0.! ' &                           ",
"                      * X X X &                   @ X X X &                             ",
"                                                                                        ",
"                                                                                        ",
"                                                                                        ",
"                                                                                        ",
"                                                                                        ",
"                                                                                        ",
"                                                                                        ",
"                                                                                        ",
"                                                                                        ",
"                                                                                        "
};
