/* XPM */
static char *Girl41711113593[] = {
/* columns rows colors chars-per-pixel */
"44 64 186 2 ",
"   c black",
".  c #C3B409",
"X  c #0A0504",
"o  c #C1B20A",
"O  c #020101",
"+  c #C4B509",
"@  c #8A8E7A",
"#  c #888C78",
"$  c #C0B10A",
"%  c #050202",
"&  c #D02038",
"*  c #CE1F38",
"=  c #C81F38",
"-  c #828674",
";  c #BFB00B",
":  c #BEAF0D",
">  c #A6192C",
",  c #808370",
"<  c #B8AB10",
"1  c #0E0F0C",
"2  c #141412",
"3  c #63645A",
"4  c #D47E4A",
"5  c #271412",
"6  c #8D8208",
"7  c #878B7A",
"8  c #6B6D60",
"9  c #595752",
"0  c #56544F",
"q  c #616155",
"w  c #737567",
"e  c #DB814C",
"r  c #1A0E0C",
"t  c #0E0B0A",
"y  c #2A2A25",
"u  c #5B6732",
"i  c #7C7F6E",
"p  c #BBAC0D",
"a  c #484841",
"s  c #ACA212",
"d  c #94911B",
"f  c #585A49",
"g  c #36080E",
"h  c #B07645",
"j  c #B61A35",
"k  c #A6981E",
"l  c #BD1A3A",
"z  c #E89455",
"x  c #9D103F",
"c  c #422016",
"v  c #867C06",
"b  c #949460",
"n  c #2F331A",
"m  c #371B1E",
"M  c #878B77",
"N  c #404039",
"B  c #72111F",
"V  c #5D5B54",
"C  c #67675D",
"Z  c #938A27",
"A  c #342113",
"S  c #291D10",
"D  c #6A634A",
"F  c #3E2817",
"G  c #98975A",
"H  c #52504B",
"J  c #951743",
"K  c #870841",
"L  c #180708",
"P  c #57530B",
"I  c #A2980D",
"U  c #918607",
"Y  c #753A4C",
"T  c #311918",
"R  c #412122",
"E  c #282E16",
"W  c #847D32",
"Q  c #A37B2B",
"!  c #7C522D",
"~  c #21140C",
"^  c #5A5A50",
"/  c #D32139",
"(  c #420B13",
")  c #FEB264",
"_  c #A83444",
"`  c #F7A660",
"'  c #9D172D",
"]  c #232002",
"[  c #34352E",
"{  c #988C08",
"}  c #46232B",
"|  c #1E0F0F",
" . c #383403",
".. c #696206",
"X. c #787D26",
"o. c #454C21",
"O. c #1E1E1B",
"+. c #596532",
"@. c #B5A91F",
"#. c #BA6C4B",
"$. c #664125",
"%. c #666F2F",
"&. c #AAA237",
"*. c #B1B59F",
"=. c #B3A10F",
"-. c #504B47",
";. c #9B9518",
":. c #A9654E",
">. c #AC173B",
",. c #9E6842",
"<. c #96192D",
"1. c #DB8C52",
"2. c #8B2844",
"3. c #920C40",
"4. c #8C1626",
"5. c #E08852",
"6. c #BC854D",
"7. c #CE6B49",
"8. c #9B293B",
"9. c #2E2A02",
"0. c #7B740D",
"q. c #8D8C5C",
"w. c #66300E",
"e. c #827A36",
"r. c #231211",
"t. c #665610",
"y. c #67321B",
"u. c #8E906A",
"i. c #4A4608",
"p. c #716F54",
"a. c #592D34",
"s. c #181906",
"d. c #6C6743",
"f. c #6C743E",
"g. c #5C633C",
"h. c #3F371A",
"j. c #464737",
"k. c #596630",
"l. c #955632",
"z. c #727828",
"x. c #891525",
"c. c #686B24",
"v. c #4F0C15",
"b. c #746E3A",
"n. c #56453A",
"m. c #A49E42",
"M. c #D02739",
"N. c #985E3D",
"B. c #CD3C3E",
"V. c #A05044",
"C. c #D87549",
"Z. c #E09459",
"A. c #911738",
"S. c #8A7167",
"D. c #84786D",
"F. c #CC784D",
"G. c #AE8760",
"H. c #92464B",
"J. c #B74A4D",
"K. c #C19E1E",
"L. c #9D2F48",
"P. c #522813",
"I. c #9A7122",
"U. c #817B3C",
"Y. c #80453E",
"T. c #814740",
"R. c #5B2E38",
"E. c #613137",
"W. c #85841C",
"Q. c #848355",
"!. c #D3CDAF",
"~. c #949783",
"^. c #A0A38F",
"/. c #C4956F",
"(. c #7D7D57",
"). c #9A6F50",
"_. c #DB9E72",
"`. c #714F4F",
"'. c #8A5843",
"]. c #950E40",
"[. c #64614C",
"{. c #AC8E56",
"}. c #BE8B33",
"|. c #832842",
" X c #00B404",
".X c #C3050A",
/* pixels */
"                                                                                        ",
"                                                                                        ",
"                                                                                        ",
"                                                                                        ",
"                                                                                        ",
"                                          ( x.x.B X                                     ",
"                        O         g 4.4.4.<.>.* = <.B %                                 ",
"                    % ! h A       v./ l x ].3.= & / = B %                               ",
"                  S h 1.` h.  % B ' x 3.K K 3.= * * / > %                               ",
"                  F ) z z F   % > l K J _ _ _ B.& & / > %                               ",
"                  A z 5.5.F   % > j J V.,.#.e C.B.l >.B %                               ",
"                X $.4 e h S   ( j j _ N.n.:.e e 7.J A.( O                               ",
"              1 D 4 e N.~   % ' l x J.6.h e F.,.V.>.& > %                               ",
"              y !./.! ~     % ' x K J.) ` z 1.'.2.= & > %                               ",
"            % N *.*.O       % ' x K L.Z.) ` z C.M.* & > %                               ",
"            1 ^ ~.^.X t 1 1 2 <.8.A.|.:.` 5.7.7.M.* & > L L %                           ",
"            1 H C 3 1 ^ i w w b.k K.Q H.H.8.8.L.= * * = j j v.%                         ",
"            1 0 a y -.w - C D k < K.4 F.}.=.k S.J l * * & & l g                         ",
"            t a 0 H 9 V V q k : G G.4 G.&.Z q D.2.x = * * * & g                         ",
"              2 0 9 9 -.a (.@.; G {.6.m.$ Z ^ i S.J = & & & j g                         ",
"              1 N a a 2 % 6 o $ : : : : o ;.%.q D.2.= = > > g     S A ~                 ",
"              O % % % O O 6 . $ $ $ $ $ $ $ s D i `.= > X % O   % 6.) ,.                ",
"                        O b.@.: m.&.$ $ $ o =.[.3 -.( g O O O % ! 1.z 4 h $.            ",
"                        O O.c.X.f.f.d $ $ ;.c.y 0 w q f N i ).l.4 e 4 e h S             ",
"                            o.u k.k.%.X.X.o.1 t H 3 C 3 9 *._.4 4 Z.$.A ~               ",
"                          % j.g.u u +.+.u n   % 2 O.H 0 0 - n.A A F X                   ",
"                        O ..Q.q f f f f g.n       O 2 2 2 O.X                           ",
"                          6 G w 8 3 0 0 f n                                             ",
"                         .I G 7 # i 8 8 8 [                                             ",
"                       .I o b 7 # # # # @ 3 [ %                                         ",
"                      v + ; b 7 # # # # # @ - N O                                       ",
"                      v . ; &.u.# # # # # # # , a [ O                                   ",
"                      v . $ ; b 7 # # # # # # # @ , a N y y t                           ",
"                      v + $ : q.7 # # # # # # # # # @ - 3 q y 2 1 O                     ",
"                      0.; $ : U., # # # # # # # # # # M - - , i q y %                   ",
"                      h.I o $ < b 7 # # # # # # # # # # # # @ @ M 8 2                   ",
"                      % 6 + $ : q.- # # # # M , , , # # 7 7 w 8 8 O.                    ",
"                      O 0.: $ : e.p.- # # # - C 9 q i , b b n O % O                     ",
"                        n I o $ ; Z C - # # # - 3 9 ^ e.p : P X                         ",
"                      % % 6 . $ . Z 0 8 # # # # , 9 d.< $ $ p  .                        ",
"                        O 6 . $ o < W V w # # # , D k ; $ $ $ { ]                       ",
"                        O 6 . $ $ o < W V w M M u.k $ $ $ $ $ . { ]                     ",
"                        O 6 o $ $ $ o < W V 3 p.@.o $ $ $ $ $ $ ; 9.                    ",
"                        O P s o $ $ $ o < W 9 D < o $ $ $ $ $ p =.9.                    ",
"                          1 { . $ $ o . . < k d.< o $ $ $ . o i.] X                     ",
"                          % U . $ o s d s + p Z p $ $ o o v ..s.                        ",
"                          % U . $ o s z.z.d d ;.; + p Q Q ! r                           ",
"                          % U . $ $ . d +.u u %.W...t.Y Y #.F                           ",
"                          % U + . . + d u o.E n E   % } Y #.l.r                         ",
"                          % I.Q t.P P i.E s.        O X m T.:.R %                       ",
"                          r Y.E.X                         m Y } X                       ",
"                          5 R.R X                         | R.R t O                     ",
"                          5 m T t X %                     r.m T T X                     ",
"                          | T R c c 5 %                   | m c c r O                   ",
"                          O | a.y.w.P.r                   O } y.w.c X                   ",
"                            O | 5 5 5 L                     r 5 5 r.X                   ",
"                                                                                        ",
"                                                                                        ",
"                                                                                        ",
"                                                                                        ",
"                                                                                        ",
"                                                                                        ",
"                                                                                        ",
"                                                                                        "
};
