/* XPM */
static char *Girl31711113593[] = {
/* columns rows colors chars-per-pixel */
"44 64 190 2 ",
"   c black",
".  c #CF2038",
"X  c #8A8E7A",
"o  c #130B0A",
"O  c #878B7A",
"+  c #C1B208",
"@  c #0C0605",
"#  c #888C78",
"$  c #040301",
"%  c #C0B10A",
"&  c #BEAF0C",
"*  c #868A75",
"=  c #C81E36",
"-  c #4C4603",
";  c #0F0C05",
":  c #30070D",
">  c #5E5E54",
",  c #7A7C6D",
"<  c #504A02",
"1  c #2A1515",
"2  c #321918",
"3  c #252621",
"4  c #181703",
"5  c #A19812",
"6  c #3D3E38",
"7  c #1B1B16",
"8  c #C4B409",
"9  c #5A5751",
"0  c #45443E",
"q  c #3A0910",
"w  c #CC2038",
"e  c #620F1A",
"r  c #97143F",
"t  c #FFB364",
"y  c #D31F38",
"u  c #AAA33A",
"i  c #2E2C05",
"p  c #82866F",
"a  c #664527",
"s  c #5B3820",
"d  c #9D9853",
"f  c #53331F",
"g  c #4A4B42",
"h  c #7F8271",
"j  c #BAAE18",
"k  c #575652",
"l  c #64645A",
"z  c #910D40",
"x  c #432228",
"c  c #3B3601",
"v  c #AEA109",
"b  c #351A1E",
"n  c #909168",
"m  c #76492A",
"M  c #ABA338",
"N  c #AB9E1B",
"B  c #2E2D2B",
"V  c #B4A81B",
"C  c #6F7065",
"Z  c #6E703C",
"A  c #5D6934",
"S  c #F39D5B",
"D  c #7B424A",
"F  c #801322",
"G  c #CF7B4A",
"H  c #AD1737",
"J  c #D42F3C",
"K  c #BC1A3A",
"L  c #78723D",
"P  c #F9A861",
"I  c #C21F3A",
"U  c #B7173A",
"Y  c #8B0B41",
"T  c #464103",
"R  c #A19B3A",
"E  c #1D0E0F",
"W  c #AFA52B",
"Q  c #6C3843",
"!  c #B0634D",
"~  c #676F27",
"^  c #B6A809",
"/  c #A6A143",
"(  c #7B7F60",
")  c #757668",
"_  c #97955D",
"`  c #949464",
"'  c #D67E4A",
"]  c #2A050A",
"[  c #8E6A58",
"{  c #6C4F40",
"}  c #C56D48",
"|  c #A0123E",
" . c #D66E46",
".. c #B56D54",
"X. c #8F2A3A",
"o. c #232308",
"O. c #482315",
"+. c #5C5406",
"@. c #5A2C1C",
"#. c #7E7406",
"$. c #4C2620",
"%. c #B2A829",
"&. c #582C35",
"*. c #62623D",
"=. c #8B8E73",
"-. c #3B211D",
";. c #1F1310",
":. c #727A56",
">. c #9F782C",
",. c #EA9B58",
"<. c #8B5F36",
"1. c #8A8435",
"2. c #B5A40F",
"3. c #515B2D",
"4. c #687245",
"5. c #670F1B",
"6. c #333724",
"7. c #5A6229",
"8. c #E48D52",
"9. c #766B59",
"0. c #845933",
"q. c #A15439",
"w. c #8D8207",
"e. c #A7A014",
"r. c #DC9253",
"t. c #ACAB92",
"y. c #DCA680",
"u. c #CF2539",
"i. c #DB8A50",
"p. c #C1764A",
"a. c #A0172A",
"s. c #4C0C14",
"d. c #EDA25D",
"f. c #DA5445",
"g. c #C55F47",
"h. c #B41A34",
"j. c #A22D43",
"k. c #B52F3F",
"l. c #674047",
"z. c #A56728",
"x. c #CD8255",
"c. c #F6915A",
"v. c #BB544B",
"b. c #D8774C",
"n. c #6E223F",
"m. c #A19546",
"M. c #D08378",
"N. c #6A714A",
"B. c #615D0C",
"V. c #612F0E",
"C. c #4D4912",
"Z. c #959231",
"A. c #623029",
"S. c #AAA029",
"D. c #7E750B",
"F. c #8D6036",
"G. c #888A59",
"H. c #DBD2B3",
"J. c #98870E",
"K. c #4A5428",
"L. c #383935",
"P. c #827D12",
"I. c #C66354",
"U. c #983E47",
"Y. c #908E52",
"T. c #AFA630",
"R. c #510920",
"E. c #925834",
"W. c #7B5441",
"Q. c #A86A47",
"!. c #7E2F27",
"~. c #5D473E",
"^. c #E57A50",
"/. c #B18860",
"(. c #C28C47",
"). c #7B1E40",
"_. c #AD8564",
"`. c #D45661",
"'. c #C27573",
"]. c #C8403E",
"[. c #B18519",
"{. c #BC3745",
"}. c #D9B990",
"|. c #715D43",
" X c #929B86",
".X c #8A073C",
"XX c #1D9E00",
"oX c #040038",
"OX c #00207A",
"+X c #CF8E0A",
/* pixels */
"                                                                                        ",
"                                                                                        ",
"                                                                                        ",
"                                                                                        ",
"                                                                                        ",
"                                              $ ] : : : : : @                           ",
"                                              q H = = = = = q                           ",
"                                          o s.h.r K w . . . 5.: @                       ",
"                                          e . I z r w . . w w = q                       ",
"                                          e . I z r w . . H K w q                       ",
"                                          R.| r r g.f.u.u.| U w q     $ $               ",
"                                        s.h.I g.} G '  . .j.U . H ]   s 0.$             ",
"                                        e y J } { W.G G G j.U . w q f i.' a             ",
"                                        e . J } { p.p.{ ~.).z K . b.r.i.8.0.            ",
"                                        e y J S d.P d.Q.0 n.Y z I c.t S E.o             ",
"          ; m a                         ] a.J P t t t x.n.r H z K ^.P c.!.              ",
"        ; F.,.r.<.a                   7 0 l.U.I.P t P v.Y | = U ]. .b.f.F               ",
"        o a m ' S ,.m m 9.) 7   7 g g l h l 9 z.....v.q.Y Y X.'.y.}.M.y F               ",
"            @ f s <.S 8.y.H.> B g , X h l l ( N D D [ m.z.X.l. Xt.M.`.a.:               ",
"                  o a s [ t.C 9 k > , > 0 Y.T.V [ .._.` % [.|., * {.y F                 ",
"                        3 L.g 9 9 0 3 7 6 / + & M /.x._ & + L , ) k.y F                 ",
"                            L.0 0 3     6 / + + j d (.m.& % L C l k.= e                 ",
"                              $ $ $     L.R 8 % % & % % 8 j L k 9 X.5.$                 ",
"                                        B 1.e.% + + 8 ^ w.Z > 9 k 7                     ",
"                                      4 *.:.~ 5 5 5 e.P.@ $ B 6 6 o                     ",
"                                      C.d ( 4.4.A A 7.6.$                               ",
"                                      6 X # # p A A K.$                                 ",
"                                      6 X # # * p ( 3.;                                 ",
"                                    o.N.# # # # # # G.D.; $                             ",
"                                    - R O # # # # O ` V 5 c                             ",
"                                    < u O # # # # # # d j v i                           ",
"                                  $ +./ O # # # # # # # n %.c                           ",
"                                  T R =.# # # # # # # # # W c                           ",
"                                  - M O # # # # # # # # O d *.g o                       ",
"                                  - M O # # # # # # # # # O X # 3                       ",
"                                  - M O # # # # # # # # # # # * 3                       ",
"                                  - j d # # # # # # # # # # # * 3                       ",
"                                $ i 5 u O # # # p C * # # # # :.7                       ",
"                                  @ B.u O # # # * ) C # # # # Z.i                       ",
"                                    < u O # # # # h > , # # ` V i                       ",
"                                    < u O # # # # p l > , , S.% +.c o.                  ",
"                                    < %.n O # # # X h 9 k Z N + % + #.                  ",
"                                    < 8 W n O # # # h > L N + % % 8 #.                  ",
"                                    < 8 + W d =.# # p 1.& % % % % w.-                   ",
"                                    - & % + j n * * _ & % % % ^ v i                     ",
"                                    -.>.& + % N Z Z V % + + ^ T 4 $                     ",
"                                    f ! >.2.5 ~ 3.~ & & v v T $   $                     ",
"                                    s ! D f 4 ; 4 7.2.J.4 4 $                           ",
"                                    s ! Q b       ;.D Q $                               ",
"                                  $ f q.x $       o Q &.$                               ",
"                                  o b -.E         @ b 1                                 ",
"                                  o 2 2 E         $ 2 1                                 ",
"                                  o 2 2 1 o     $ ;.2 1                                 ",
"                                  $ b A.V.@.x $ @ @.&.1                                 ",
"                                    E $.O.$.x $ @ O.x 1                                 ",
"                                    $ @ @ @ @     @ @ @                                 ",
"                                                                                        ",
"                                                                                        ",
"                                                                                        ",
"                                                                                        ",
"                                                                                        ",
"                                                                                        ",
"                                                                                        ",
"                                                                                        "
};
