/* XPM */
static char *Girl51711113593[] = {
/* columns rows colors chars-per-pixel */
"44 64 193 2 ",
"   c black",
".  c #898D79",
"X  c #BDAF0C",
"o  c #040202",
"O  c #575551",
"+  c #CE1F38",
"@  c #090203",
"#  c #888C78",
"$  c #010000",
"%  c #C0B10A",
"&  c #111110",
"*  c #6D6D62",
"=  c #616158",
"-  c #D32139",
";  c #271511",
":  c #1D0D0E",
">  c #090806",
",  c #C1B209",
"<  c #878B7A",
"1  c #321917",
"2  c #312E03",
"3  c #363203",
"4  c #5B6731",
"5  c #201E03",
"6  c #868A77",
"7  c #828573",
"8  c #727466",
"9  c #110B06",
"0  c #BBAC0B",
"q  c #696743",
"w  c #B7173B",
"e  c #191917",
"r  c #351B1C",
"t  c #5A603D",
"y  c #25261C",
"u  c #8A8E74",
"i  c #402026",
"p  c #95945C",
"a  c #716F3E",
"s  c #54524C",
"d  c #595751",
"f  c #B6AA1D",
"g  c #DD874F",
"h  c #D57E4B",
"j  c #DB7F4B",
"k  c #9B0F3E",
"l  c #8D0F42",
"z  c #170C0B",
"x  c #931727",
"c  c #727828",
"v  c #AEA212",
"b  c #C5B609",
"n  c #98172B",
"m  c #B2A725",
"M  c #CA1E38",
"N  c #A73545",
"B  c #9F6345",
"V  c #683214",
"C  c #959460",
"Z  c #64665B",
"A  c #6D3646",
"S  c #90891B",
"D  c #5B5953",
"F  c #7C3E51",
"G  c #7A7C6F",
"H  c #66665D",
"J  c #58594C",
"K  c #8F872A",
"L  c #A99D15",
"P  c #945B3F",
"I  c #9B955D",
"U  c #F0A35E",
"Y  c #E79357",
"T  c #E28D54",
"R  c #482315",
"E  c #50282F",
"W  c #2D321B",
"Q  c #2C2905",
"!  c #AA1A2E",
"~  c #514A05",
"^  c #AE1A2E",
"/  c #1E1D18",
"(  c #948908",
")  c #7D806F",
"_  c #444C28",
"`  c #514433",
"'  c #312113",
"]  c #6D6505",
"[  c #643240",
"{  c #2C151D",
"}  c #4E4E49",
"|  c #D12039",
" . c #181C0D",
".. c #B21B30",
"X. c #3E2B18",
"o. c #C21C38",
"O. c #8B7330",
"+. c #362113",
"@. c #B6A60E",
"#. c #D3C8A9",
"$. c #A6133C",
"%. c #D64240",
"&. c #D88B5B",
"*. c #FFB264",
"=. c #8F203C",
"-. c #D0764D",
";. c #161400",
":. c #683D2F",
">. c #410A12",
",. c #9C9842",
"<. c #7A7C5F",
"1. c #6A6A1A",
"2. c #562B38",
"3. c #A0950B",
"4. c #979223",
"5. c #A09C45",
"6. c #393734",
"7. c #5E5F4A",
"8. c #5C580F",
"9. c #740B33",
"0. c #5B643A",
"q. c #753F32",
"w. c #C9273D",
"e. c #D1313B",
"r. c #B27446",
"t. c #6D111D",
"y. c #B87647",
"u. c #9B8A6C",
"i. c #BC883F",
"p. c #EB9B59",
"a. c #84524F",
"s. c #674934",
"d. c #30322C",
"f. c #A69C1D",
"g. c #513820",
"h. c #766B35",
"j. c #7A6F4B",
"k. c #94323D",
"l. c #BD3942",
"z. c #D06346",
"x. c #924B4F",
"c. c #B5B79E",
"v. c #BFA01E",
"b. c #930D40",
"n. c #744F47",
"m. c #9D4345",
"M. c #60514F",
"N. c #BC273C",
"B. c #C78154",
"V. c #FDAD62",
"C. c #49461C",
"Z. c #7B1321",
"A. c #68712E",
"S. c #9D9819",
"D. c #353028",
"F. c #3A3D15",
"G. c #5C3A22",
"H. c #615904",
"J. c #871525",
"K. c #847113",
"L. c #988D0B",
"P. c #909165",
"I. c #909268",
"U. c #9F792C",
"Y. c #967A6D",
"T. c #41403C",
"R. c #815932",
"E. c #373D1B",
"W. c #A85C5B",
"Q. c #615E37",
"!. c #3B041C",
"~. c #B34E54",
"^. c #3E3E3B",
"/. c #565946",
"(. c #C64B43",
"). c #7F5631",
"_. c #6D203E",
"`. c #4B1617",
"'. c #989C88",
"]. c #E87151",
"[. c #4B3C3C",
"{. c #ABA238",
"}. c #C28158",
"|. c #D77449",
" X c #A12445",
".X c #C06348",
"XX c #C47A55",
"oX c #AE7B50",
"OX c #CF8A3F",
"+X c #FC6400",
"@X c #040079",
"#X c #008D0C",
"$X c #89AF02",
/* pixels */
"                                                                                        ",
"                                                                                        ",
"                                                                                        ",
"                                                                                        ",
"                                                                                        ",
"                                                                                        ",
"                                      $ $ $ $ $ $                                       ",
"                              $ $ $   >.x x x x >.                                      ",
"                            $ t.n n x ..- - - - ..Z.@                                   ",
"                      9 g.g.`...- - - M o.+ + + - ^ @                                   ",
"                    9 ).U V.%.+ w w w k $.+ + + | ! @                                   ",
"                    X.U g p.%.w b.N N N l.e.+ + - ! @                                   ",
"                    +.T g Y l.b.N B B r.j z.e.o.w n @                                   ",
"                  9 q.h j ]. Xl .Xs.n.B j j (.k l 9.@                                   ",
"                & j.h |.%.M k l -.oX-.j y.P k.k 9.!.o                                   ",
"                d.#.&.z.+ + k l Y *.T g B [._.w t.@                                     ",
"                d.#.c.a.+ + k l &.*.V.V.Y m.$.+ o.n : $                                 ",
"              & O '.c.n.N.N.=.=.P &.U T -.N $.M + + n @                                 ",
"              & s H G d M.M.h.L v.B x.m.k.=.l w + | ! @                                 ",
"              & s d D d J q f.f OX-.XXi.@.O.x.w.+ | ! @                                 ",
"              & s O s } j.0 X I B.B.I {.K * 7 W.w.M J.@         $ ; ' >                 ",
"              & s d T.y p % X I }.u.f , K O 8 # ~.^ 9           > y.U '                 ",
"              o e / & Q m % % m v.m X , S /.8 . Y.a.>   $ $ $ o R.g T y.r.:.            ",
"                    o 2 X % % % , , % , @.8.^.H H Z = = J O u.P h g h g s.'             ",
"                      y ,.0 X 5.f % % % b H.> 6.O = 6 7 = G #.h h Y p.G.o               ",
"                      > y 2 1.a c v X X S.F.  > 6.d = s e / D.+.+.X.X.>                 ",
"                            _ 4 4 c c c A.W     > & & &                                 ",
"                            _ t t t 4 4 4 W       o                                     ",
"                            } * D O t t t W                                             ",
"                        ;.~ <.# 8 * * * * s e                                           ",
"                        3 % p < . . . . . . Z e                                         ",
"                        3 X p < # # # # # . . a Q                                       ",
"                        3 X p < # # # # # # # I C.                                      ",
"                        3 f C < # # # # # # . . ` ;.                                    ",
"                        y u u # # # # # # # # . ,.S 5                                   ",
"                      o y ) 6 # # # # # # # # < u C S 5                                 ",
"                        e D ) . # # # # # # # # # # C L.5                               ",
"                        e O ) . # # # # # # # # # # I.m S 2 5                           ",
"                        / a <.6 # # # # # # # 7 7 # # u p 0 ( 2 9                       ",
"                        3 0 a G . # # # # # . * 8 # 6 < C % % 0 2                       ",
"                        3 0 a = 7 # # # # # # 7 * Z Z * p X % X 2                       ",
"                        3 0 L q = H 7 # # # # . 7 8 D q m % % @.2                       ",
"                        5 c v a O O = 8 6 6 # u u P.f.v % , ( Q >                       ",
"                         .4 L v q O O D = 8 6 5.f f , , % ( 5                           ",
"                         .4 L X q O O O O 7.q 4.b b b b 3.5                             ",
"                        9 E.3.% K 7.O O J 0.Q.O.K.] ] ] ~ $                             ",
"                          $ 1.X X q O J 0._ ` F 2.{     o                               ",
"                        $ $ y 8.v 4.K h.`  .: [ F [ @                                   ",
"                          $     ~ O.U.P i     { A A :                                   ",
"                                o { A F i     : i E 1 z $                               ",
"                                  o [ F i     : 1 1 1 ; $                               ",
"                                  @ 2.A i     z 1 r i r @                               ",
"                                  > 1 r :     $ : i q.:.r $                             ",
"                                o r R R ; o     z 1 V V E o                             ",
"                                o E V V R z       @ ; ; : $                             ",
"                                o : ; ; ; 9         $ $ $                               ",
"                                  $ $ $ $                                               ",
"                                                                                        ",
"                                                                                        ",
"                                                                                        ",
"                                                                                        ",
"                                                                                        ",
"                                                                                        ",
"                                                                                        "
};
